#N canvas 642 404 862 300 12;
#X obj 95 93 jh.dust 40 5;
#X obj 403 258 noteout;
#X obj 99 47 tgl 15 0 empty empty empty 17 7 0 10 -262144 -1 -1 1 1
;
#X obj 95 127 bng 15 250 50 0 empty empty empty 17 7 0 10 -262144 -1
-1;
#X msg 100 182 36;
#X msg 135 181 127;
#X msg 174 180 10;
#X obj 144 49 hsl 128 15 1000 0.2 1 0 empty empty empty -2 -8 0 10
-262144 -1 -1 0 1;
#X obj 282 105 jh.dust 40 5;
#X obj 286 59 tgl 15 0 empty empty empty 17 7 0 10 -262144 -1 -1 1
1;
#X obj 282 139 bng 15 250 50 0 empty empty empty 17 7 0 10 -262144
-1 -1;
#X msg 322 193 127;
#X msg 361 192 10;
#X obj 331 61 hsl 128 15 1000 0.2 1 0 empty empty empty -2 -8 0 10
-262144 -1 -1 0 1;
#X msg 287 195 38;
#X obj 472 107 jh.dust 40 5;
#X obj 476 61 tgl 15 0 empty empty empty 17 7 0 10 -262144 -1 -1 1
1;
#X obj 472 141 bng 15 250 50 0 empty empty empty 17 7 0 10 -262144
-1 -1;
#X msg 512 195 127;
#X msg 551 194 10;
#X obj 521 63 hsl 128 15 1000 0.2 1 0 empty empty empty -2 -8 0 10
-262144 -1 -1 0 1;
#X obj 659 119 jh.dust 40 5;
#X obj 663 73 tgl 15 0 empty empty empty 17 7 0 10 -262144 -1 -1 1
1;
#X obj 659 153 bng 15 250 50 0 empty empty empty 17 7 0 10 -262144
-1 -1;
#X msg 699 207 127;
#X msg 738 206 10;
#X obj 708 75 hsl 128 15 1000 0.2 1 0 empty empty empty -2 -8 0 10
-262144 -1 -1 0 1;
#X msg 477 196 40;
#X msg 664 209 46;
#X obj 401 5 hsl 128 15 1000 0.2 1 0 empty empty empty -2 -8 0 10 -262144
-1 -1 0 1;
#X connect 0 0 3 0;
#X connect 2 0 0 0;
#X connect 3 0 4 0;
#X connect 3 0 5 0;
#X connect 3 0 6 0;
#X connect 4 0 1 0;
#X connect 5 0 1 1;
#X connect 6 0 1 2;
#X connect 7 0 0 1;
#X connect 8 0 10 0;
#X connect 9 0 8 0;
#X connect 10 0 14 0;
#X connect 10 0 11 0;
#X connect 10 0 12 0;
#X connect 11 0 1 1;
#X connect 12 0 1 2;
#X connect 13 0 8 1;
#X connect 14 0 1 0;
#X connect 15 0 17 0;
#X connect 16 0 15 0;
#X connect 17 0 27 0;
#X connect 17 0 18 0;
#X connect 17 0 19 0;
#X connect 18 0 1 1;
#X connect 19 0 1 2;
#X connect 20 0 15 1;
#X connect 21 0 23 0;
#X connect 22 0 21 0;
#X connect 23 0 28 0;
#X connect 23 0 24 0;
#X connect 23 0 25 0;
#X connect 24 0 1 1;
#X connect 25 0 1 2;
#X connect 26 0 21 1;
#X connect 27 0 1 0;
#X connect 28 0 1 0;
#X connect 29 0 7 0;
#X connect 29 0 13 0;
#X connect 29 0 20 0;
#X connect 29 0 26 0;
