#N canvas 629 215 542 420 10;
#X obj 15 150 random 6;
#X obj 15 172 sel 4;
#X obj 65 196 random 100;
#X obj 65 218 / 100;
#X obj 15 12 inlet;
#X obj 60 12 inlet;
#X obj 15 241 outlet;
#X obj 65 241 outlet;
#X obj 190 12 inlet;
#X obj 190 94 loadbang;
#X obj 145 176 pack f f;
#X msg 145 198 \$1 5 0 \, 0 5 \$2;
#X obj 190 114 \$2;
#X msg 190 156 5;
#X obj 145 219 vline~;
#X obj 145 241 outlet~;
#X obj 190 135 sel 0;
#X obj 80 42 loadbang;
#X obj 80 63 \$1;
#X obj 80 84 sel 0;
#X obj 15 128 metro \$1;
#X msg 80 105 40;
#X connect 0 0 1 0;
#X connect 1 0 6 0;
#X connect 1 0 2 0;
#X connect 2 0 3 0;
#X connect 3 0 7 0;
#X connect 3 0 10 0;
#X connect 4 0 20 0;
#X connect 5 0 20 1;
#X connect 8 0 10 1;
#X connect 9 0 12 0;
#X connect 10 0 11 0;
#X connect 11 0 14 0;
#X connect 12 0 10 1;
#X connect 12 0 16 0;
#X connect 13 0 10 1;
#X connect 14 0 15 0;
#X connect 16 0 13 0;
#X connect 17 0 18 0;
#X connect 18 0 19 0;
#X connect 19 0 21 0;
#X connect 20 0 0 0;
#X connect 21 0 20 1;
