#N canvas 631 77 556 683 10;
#X obj 169 70 tgl 15 0 empty empty empty 17 7 0 10 -262144 -1 -1 1
1;
#X obj 206 108 hsl 128 15 20 1000 1 0 sslider1 empty empty -2 -8 0
10 -262144 -1 -1 5900 1;
#X floatatom 339 107 5 0 0 0 - sslider1 -;
#X obj 169 202 bng 15 250 50 0 empty empty empty 17 7 0 10 -262144
-1 -1;
#X floatatom 203 226 5 0 0 0 - - -;
#X obj 223 278 *~;
#X obj 223 301 dac~;
#X obj 241 142 hsl 128 15 5 1000 1 0 sslider2 empty empty -2 -8 0 10
-262144 -1 -1 0 1;
#X floatatom 375 141 5 0 0 0 - sslider2 -;
#X obj 169 170 jh.dust 40 5;
#X text 116 33 [jh.dust] is a basic utility based on the supercollider
dust ugen.;
#X obj 2 -20 cnv 15 552 40 empty empty jh.dust 3 12 0 18 -71672 -262144
0;
#X obj 488 -16 jh.dust;
#X text 11 3 it crackles yo.;
#X obj 4 344 cnv 3 550 3 empty \$0-pddp.cnv.inlets inlets 8 12 0 13
-196096 -33294 0;
#X obj 4 448 cnv 3 550 3 empty \$0-pddp.cnv.outlets outlets 8 12 0
13 -191999 -33293 0;
#X obj 4 563 cnv 3 550 3 empty \$0-pddp.cnv.argument arguments 8 12
0 13 -187837 -20 0;
#X obj 81 355 cnv 17 3 17 empty \$0-pddp.cnv.let.0 0 5 9 0 16 -228856
-162280 0;
#X obj 82 459 cnv 17 3 17 empty \$0-pddp.cnv.let.0 0 5 9 0 16 -228856
-162280 0;
#X obj 82 388 cnv 17 3 17 empty \$0-pddp.cnv.let.1 1 5 9 0 16 -228856
-162280 0;
#X obj 82 420 cnv 17 3 17 empty \$0-pddp.cnv.let.2 2 5 9 0 16 -228856
-162280 0;
#X text 150 350 - The first inlet toggles the dust on and off \, if
a bang is sent to the left inlet it will run indefinetly.;
#X text 102 363 Bang;
#X text 101 350 Toggle;
#X text 102 389 Float;
#X text 103 420 Float;
#X text 151 384 - The second inlet sets the density/rate of the dust
particles.;
#X text 151 420 - The third inlet sets the duration of the dust particles.
;
#X obj 83 492 cnv 17 3 17 empty \$0-pddp.cnv.let.1 1 5 9 0 16 -228856
-162280 0;
#X obj 83 524 cnv 17 3 17 empty \$0-pddp.cnv.let.2 2 5 9 0 16 -228856
-162280 0;
#X text 103 493 Float;
#X text 104 524 Signal;
#X text 102 459 Bang;
#X text 152 459 - The first outlet outputs a bang for every particle
of dust;
#X text 153 485 - The second outlet outputs a number between 0 and
1 for each particle.;
#X text 152 524 - The third outlet outputs an envelope signal ideal
for sending into a [*~];
#X text 81 588 1) float;
#X text 81 610 2) float;
#X text 151 587 - (optional) initial density/rate of dust particles.
;
#X text 152 608 - (optional) initial duration of dust particles.;
#X obj 0 637 cnv 15 552 21 empty \$0-pddp.cnv.footer empty 20 12 0
14 -191999 -66577 0;
#X obj 482 33 pddp/dsp;
#X obj 223 255 noise~;
#X connect 0 0 9 0;
#X connect 1 0 9 1;
#X connect 5 0 6 0;
#X connect 5 0 6 1;
#X connect 7 0 9 2;
#X connect 9 0 3 0;
#X connect 9 1 4 0;
#X connect 9 2 5 1;
#X connect 42 0 5 0;
