#N canvas 128 60 1041 703 10;
#X obj 44 497 snapshot~;
#X obj 44 454 +~ 1;
#X obj 44 475 *~ 63;
#X floatatom 605 131 5 0 0 0 - - -;
#X obj 91 474 metro 10;
#X obj 91 455 tgl 15 0 empty empty empty 17 7 0 10 -262144 -1 -1 1
1;
#X obj 422 449 *~ 126;
#X msg 230 553 126;
#X msg 276 552 0;
#X obj 276 531 del 300;
#X floatatom 315 395 5 0 0 0 - - -;
#X obj 315 418 / 2;
#X obj 315 509 +;
#X floatatom 315 445 5 0 0 0 - - -;
#X obj 353 108 r \$0-waveselect;
#X obj 353 154 s \$0-sin;
#X obj 368 176 s \$0-sqr;
#X obj 383 198 s \$0-saw;
#X obj 91 376 r \$0-sin;
#X obj 148 376 r \$0-sqr;
#X obj 148 396 r \$0-saw;
#X msg 91 396 1;
#X msg 148 438 0;
#X obj 504 109 loadbang;
#X obj 504 129 s \$0-sin;
#X obj 422 498 snapshot~;
#X obj 469 475 metro 10;
#X obj 469 456 tgl 15 0 empty empty empty 17 7 0 10 -262144 -1 -1 0
1;
#X obj 526 377 r \$0-sqr;
#X msg 469 397 1;
#X msg 526 439 0;
#X obj 469 377 r \$0-saw;
#X obj 526 397 r \$0-sin;
#X obj 847 470 random 127;
#X obj 147 418 r \$0-rand;
#X obj 526 419 r \$0-rand;
#X obj 847 423 tgl 15 0 empty empty empty 17 7 0 10 -262144 -1 -1 0
1;
#X obj 911 344 r \$0-sqr;
#X msg 847 364 1;
#X msg 911 406 0;
#X obj 911 364 r \$0-sin;
#X obj 847 344 r \$0-rand;
#X obj 911 386 r \$0-saw;
#X obj 230 389 tgl 15 0 empty empty empty 17 7 0 10 -262144 -1 -1 0
1;
#X msg 230 330 1;
#X msg 287 372 0;
#X obj 287 330 r \$0-sin;
#X obj 287 352 r \$0-rand;
#X floatatom 230 576 5 0 0 0 - - -;
#X obj 230 310 r \$0-sqr;
#X obj 287 310 r \$0-saw;
#X obj 422 428 phasor~ 1;
#X obj 44 331 expr 1/($f1 / 1000);
#X obj 44 311 r \$0-rate;
#X obj 315 372 r \$0-rate;
#X obj 898 427 r \$0-rate;
#X obj 422 333 expr 1/($f1 / 1000);
#X obj 422 313 r \$0-rate;
#X msg 504 150 400;
#X obj 504 172 s \$0-setrate;
#X obj 44 431 osc~ 1;
#X obj 230 411 metro 400;
#X obj 847 448 metro 400;
#X obj 330 467 r \$0-pw;
#X obj 315 488 *;
#X obj 354 444 t b;
#X obj 503 216 s \$0-setpw;
#X msg 503 194 1;
#X obj 605 221 ctlout;
#X msg 638 200 6;
#X obj 621 155 t b;
#X obj 621 179 \$1;
#X obj 605 110 r \$0-out;
#X obj 44 517 s \$0-out;
#X obj 230 596 s \$0-out;
#X obj 422 518 s \$0-out;
#X obj 847 492 s \$0-out;
#X obj 650 537 line;
#X msg 650 487 126;
#X msg 650 507 0;
#X obj 650 425 del 300;
#X floatatom 723 420 5 0 0 0 - - -;
#X obj 723 439 / 2;
#X floatatom 723 461 5 0 0 0 - - -;
#X obj 723 400 r \$0-rate;
#X obj 650 401 metro 400;
#X floatatom 650 558 5 0 0 0 - - -;
#X obj 723 482 t b;
#X floatatom 723 502 5 0 0 0 - - -;
#X obj 650 580 s \$0-out;
#X obj 288 289 r \$0-tri;
#X obj 527 356 r \$0-tri;
#X obj 912 322 r \$0-tri;
#X obj 398 222 s \$0-tri;
#X obj 353 130 sel 0 1 2 3 4;
#X obj 413 154 s \$0-rand;
#X obj 148 356 r \$0-tri;
#X obj 650 381 tgl 15 0 empty empty empty 17 7 0 10 -262144 -1 -1 0
1;
#X obj 707 302 r \$0-sqr;
#X obj 707 322 r \$0-saw;
#X msg 650 322 1;
#X msg 707 364 0;
#X obj 706 344 r \$0-rand;
#X obj 707 282 r \$0-sin;
#X obj 650 302 r \$0-tri;
#X obj 101 101 cnv 15 165 130 empty empty \$1 5 10 0 14 -146617 -66577
0;
#X obj 108 130 hradio 30 1 0 5 \$0-waveselect \$0-setwaveselect empty
0 -8 0 10 -262144 -1 -1 0;
#X text 112 114 Sin;
#X text 143 114 Sqr;
#X text 172 114 Saw;
#X text 231 114 Rand;
#X obj 111 178 hsl 145 15 50 10000 1 0 \$0-rate \$0-setrate Rate: -2
-8 0 10 -262144 -1 -1 0 0;
#X obj 111 211 hsl 145 15 0.2 1.8 0 0 \$0-pw \$0-setpw Pulse_Width:
-2 -8 0 10 -262144 -1 -1 0 1;
#X text 203 114 Tri;
#X connect 0 0 73 0;
#X connect 1 0 2 0;
#X connect 2 0 0 0;
#X connect 3 0 68 0;
#X connect 3 0 70 0;
#X connect 4 0 0 0;
#X connect 5 0 4 0;
#X connect 6 0 25 0;
#X connect 7 0 48 0;
#X connect 8 0 48 0;
#X connect 9 0 8 0;
#X connect 10 0 11 0;
#X connect 10 0 61 1;
#X connect 11 0 13 0;
#X connect 12 0 9 1;
#X connect 13 0 64 0;
#X connect 14 0 94 0;
#X connect 18 0 21 0;
#X connect 19 0 22 0;
#X connect 20 0 22 0;
#X connect 21 0 5 0;
#X connect 22 0 5 0;
#X connect 23 0 24 0;
#X connect 23 0 58 0;
#X connect 23 0 67 0;
#X connect 25 0 75 0;
#X connect 26 0 25 0;
#X connect 27 0 26 0;
#X connect 28 0 30 0;
#X connect 29 0 27 0;
#X connect 30 0 27 0;
#X connect 31 0 29 0;
#X connect 32 0 30 0;
#X connect 33 0 76 0;
#X connect 34 0 22 0;
#X connect 35 0 30 0;
#X connect 36 0 62 0;
#X connect 37 0 39 0;
#X connect 38 0 36 0;
#X connect 39 0 36 0;
#X connect 40 0 39 0;
#X connect 41 0 38 0;
#X connect 42 0 39 0;
#X connect 43 0 61 0;
#X connect 44 0 43 0;
#X connect 45 0 43 0;
#X connect 46 0 45 0;
#X connect 47 0 45 0;
#X connect 48 0 74 0;
#X connect 49 0 44 0;
#X connect 50 0 45 0;
#X connect 51 0 6 0;
#X connect 52 0 60 0;
#X connect 53 0 52 0;
#X connect 54 0 10 0;
#X connect 55 0 62 1;
#X connect 56 0 51 0;
#X connect 57 0 56 0;
#X connect 58 0 59 0;
#X connect 60 0 1 0;
#X connect 61 0 7 0;
#X connect 61 0 9 0;
#X connect 62 0 33 0;
#X connect 63 0 64 1;
#X connect 63 0 65 0;
#X connect 64 0 12 0;
#X connect 65 0 13 0;
#X connect 67 0 66 0;
#X connect 69 0 68 2;
#X connect 70 0 69 0;
#X connect 70 0 71 0;
#X connect 71 0 68 1;
#X connect 72 0 3 0;
#X connect 77 0 86 0;
#X connect 78 0 77 0;
#X connect 78 0 87 0;
#X connect 79 0 77 0;
#X connect 79 0 87 0;
#X connect 80 0 79 0;
#X connect 81 0 82 0;
#X connect 81 0 85 1;
#X connect 82 0 83 0;
#X connect 83 0 80 1;
#X connect 83 0 88 0;
#X connect 84 0 81 0;
#X connect 85 0 80 0;
#X connect 85 0 78 0;
#X connect 86 0 89 0;
#X connect 87 0 88 0;
#X connect 88 0 77 1;
#X connect 90 0 45 0;
#X connect 91 0 30 0;
#X connect 92 0 39 0;
#X connect 94 0 15 0;
#X connect 94 1 16 0;
#X connect 94 2 17 0;
#X connect 94 3 93 0;
#X connect 94 4 95 0;
#X connect 96 0 22 0;
#X connect 97 0 85 0;
#X connect 98 0 101 0;
#X connect 99 0 101 0;
#X connect 100 0 97 0;
#X connect 101 0 97 0;
#X connect 102 0 101 0;
#X connect 103 0 101 0;
#X connect 104 0 100 0;
#X coords 0 -1 1 1 167 132 1 100 100;
